<?xml version="1.0" encoding="utf-8"?>
<!-- Generator: Adobe Illustrator 22.1.0, SVG Export Plug-In . SVG Version: 6.00 Build 0)  -->
<svg version="1.1" id="レイヤー_1" xmlns="http://www.w3.org/2000/svg" xmlns:xlink="http://www.w3.org/1999/xlink" x="0px"
	 y="0px" viewBox="0 0 215.7 362.1" style="enable-background:new 0 0 215.7 362.1;" xml:space="preserve">
<style type="text/css">
	.st0{fill:#FFFFFF;}
</style>
<g>
	<path class="st0" d="M59.2,139.4c-1.6-2.3-3-4.9-4.2-7.4l-42.8,24.7l4.3,7.4L59.2,139.4z"/>
	<path class="st0" d="M1.3,123.4l0.7,4.2l48.5-8.6c-0.3-1.4-0.5-2.8-0.7-4.2L1.3,123.4z"/>
	<path class="st0" d="M164.1,197.4l-24.7-42.8c-2.3,1.6-4.9,3-7.4,4.2l24.7,42.8L164.1,197.4z"/>
	<path class="st0" d="M102.7,164.5v49.4h8.6v-49.4c-1.4,0.1-2.8,0.2-4.3,0.2C105.5,164.7,104.1,164.6,102.7,164.5z"/>
	<path class="st0" d="M156.1,106.9c0-27.1-22.1-49.2-49.2-49.2s-49.2,22.1-49.2,49.2s22.1,49.2,49.2,49.2S156.1,134.1,156.1,106.9z"
		/>
	<path class="st0" d="M71.5,152.5c-1.1-0.9-2.2-1.8-3.3-2.8l-31.7,37.8l3.3,2.7L71.5,152.5z"/>
	<path class="st0" d="M53.5,128.7c-0.5-1.3-1-2.7-1.5-4L5.7,141.5l1.5,4L53.5,128.7z"/>
	<path class="st0" d="M145.5,206.7l-16.8-46.3c-1.3,0.5-2.7,1-4,1.5l16.8,46.3L145.5,206.7z"/>
	<path class="st0" d="M127.6,211.9l-8.6-48.5c-1.4,0.3-2.8,0.5-4.2,0.7l8.6,48.5L127.6,211.9z"/>
	<path class="st0" d="M81.9,158.9c-2.6-1.2-5.1-2.6-7.4-4.2l-24.7,42.8l7.4,4.3L81.9,158.9z"/>
	<path class="st0" d="M89.2,161.9c-1.4-0.4-2.7-0.9-4-1.5l-16.8,46.3l4,1.5L89.2,161.9z"/>
	<path class="st0" d="M99,164.1c-1.4-0.2-2.8-0.4-4.2-0.7l-8.6,48.5l4.2,0.7L99,164.1z"/>
	<path class="st0" d="M64.2,145.6c-1-1.1-1.9-2.1-2.8-3.3L23.6,174l2.7,3.3L64.2,145.6z"/>
	<polygon class="st0" points="45.4,325.3 38,325.3 38,361.5 61.9,361.5 61.9,354.8 45.4,354.8 	"/>
	<path class="st0" d="M42.2,299.3h13.3l3.2,8.7h7.5l-13.6-36.2h-7.3L31.7,308h7.4L42.2,299.3z M48.8,280.9l4.3,12h-8.7L48.8,280.9z"
		/>
	<path class="st0" d="M28.9,281.7c0-6.5-4.6-9.8-12-9.8H3.4V308h14.7c7.4,0,11.9-3.6,11.9-10.3c0-3.9-2.4-7.3-5.8-8.4
		C26.9,288.4,28.9,285.5,28.9,281.7z M10.5,278.2h6c3.5,0,5.4,1.3,5.4,4.2c0,2.9-1.8,4.3-5.4,4.3h-6V278.2z M17.5,301.6h-7v-9.1h7
		c3.5,0,5.3,1.7,5.3,4.5C22.8,299.9,21,301.6,17.5,301.6z"/>
	<path class="st0" d="M87.3,346.1c0,6.2-2.7,9.1-7.3,9.1s-7.3-2.9-7.3-9.1v-20.9h-7.4v21.6c0,10,5.9,15.1,14.7,15.1
		c8.9,0,14.7-5.2,14.7-15.1v-21.6h-7.4L87.3,346.1L87.3,346.1z"/>
	<path class="st0" d="M18.2,331.4c4.1,0,6.3,2.2,7.5,5.5H33c-1.3-7.2-6.5-12.3-14.8-12.3c-9.5,0-16.5,7.6-16.5,18.7
		s7,18.7,16.5,18.7c8.4,0,13.5-5,14.8-12.3h-7.3c-1.2,3.4-3.4,5.6-7.5,5.6c-5.7,0-9-5.1-9-12C9.2,336.5,12.5,331.4,18.2,331.4z"/>
	<polygon class="st0" points="170.9,294.7 155.3,271.8 148.3,271.8 148.3,308 155.5,308 155.5,283.9 172.2,308 178,308 178,271.8 
		170.9,271.8 	"/>
	<path class="st0" d="M200.1,278c4.1,0,6.3,2.1,7.6,5.5h7.4c-1.3-7.2-6.5-12.2-15-12.2c-9.6,0-16.9,7.6-16.9,18.7
		s7.2,18.7,17.1,18.7c9,0,15.4-6.4,15.4-16.4V289h-14v6h6.8c-0.8,4.1-3.6,6.9-8.2,6.9c-5.9,0-9.6-5-9.6-12
		C190.7,283,194.3,278,200.1,278z"/>
	<path class="st0" d="M164.7,106.9c0,1.4-0.1,2.9-0.2,4.3h49.4v-8.6h-49.4C164.6,104.1,164.7,105.5,164.7,106.9z"/>
	<polygon class="st0" points="130,271.8 121.1,271.8 107.7,288.1 107.7,271.8 100.3,271.8 100.3,308 107.7,308 107.7,297.3 
		111.1,293.2 121.6,308 130.5,308 116.5,288 	"/>
	<path class="st0" d="M122.1,342.8c2.6-0.9,4.7-3.8,4.7-7.7c0-6.5-4.6-9.8-12-9.8h-13.6v36.2H116c7.4,0,11.9-3.6,11.9-10.2
		C127.9,347.3,125.5,343.9,122.1,342.8z M108.4,331.7h6c3.5,0,5.4,1.3,5.4,4.2c0,2.9-1.8,4.3-5.4,4.3h-6V331.7z M115.4,355.1h-7V346
		h7c3.5,0,5.3,1.7,5.3,4.5C120.7,353.3,118.9,355.1,115.4,355.1z"/>
	<path class="st0" d="M85.7,287.1l-6.5-1.5c-2.7-0.6-4-1.9-4-3.9c0-2.6,2.3-4.2,5.6-4.2c3.7,0,5.7,1.9,6.5,4.3h7.3
		c-1.2-6.1-5.8-10.5-13.9-10.5c-7.5,0-12.8,4.6-12.8,11.1c0,5.9,3.9,8.7,9,9.9l6.4,1.5c3.1,0.7,4.3,1.9,4.3,4.1
		c0,2.9-2.4,4.5-5.9,4.5s-6.1-1.5-7-4.7h-7.6c1.2,6.9,6.8,10.9,14.7,10.9c7.5,0,13.2-4.2,13.2-11.3C95,291.9,91.5,288.5,85.7,287.1z
		"/>
	<rect x="134.1" y="271.8" class="st0" width="7.4" height="36.2"/>
	<path class="st0" d="M89.2,52L72.4,5.7l-4,1.5l16.8,46.3C86.5,52.9,87.9,52.4,89.2,52z"/>
	<path class="st0" d="M64.2,68.3L26.4,36.6l-2.7,3.3l37.8,31.7C62.3,70.4,63.2,69.3,64.2,68.3z"/>
	<path class="st0" d="M71.5,61.4L39.8,23.6l-3.3,2.7l31.7,37.8C69.3,63.2,70.4,62.3,71.5,61.4z"/>
	<path class="st0" d="M81.9,55L57.2,12.2l-7.4,4.3l24.7,42.8C76.8,57.6,79.3,56.2,81.9,55z"/>
	<path class="st0" d="M99,49.8L90.5,1.3L86.3,2l8.6,48.5C96.2,50.2,97.6,50,99,49.8z"/>
	<path class="st0" d="M111.2,49.4V0h-8.6v49.4c1.4-0.1,2.8-0.2,4.3-0.2S109.8,49.3,111.2,49.4z"/>
	<path class="st0" d="M53.5,85.2L7.2,68.4l-1.5,4L52,89.2C52.4,87.9,52.9,86.5,53.5,85.2z"/>
	<path class="st0" d="M177.3,187.5l-31.7-37.8c-1.1,1-2.1,1.9-3.3,2.8l31.7,37.8L177.3,187.5z"/>
	<rect y="240.8" class="st0" width="213.9" height="6"/>
	<path class="st0" d="M59.2,74.5L16.5,49.8l-4.3,7.4L55,81.9C56.2,79.3,57.6,76.8,59.2,74.5z"/>
	<path class="st0" d="M127.6,2l-4.2-0.7l-8.6,48.5c1.4,0.2,2.8,0.4,4.2,0.7L127.6,2z"/>
	<path class="st0" d="M50.5,94.8L2,86.3l-0.7,4.2L49.8,99C50,97.6,50.2,96.2,50.5,94.8z"/>
	<path class="st0" d="M49.2,106.9c0-1.4,0.1-2.9,0.2-4.3H0v8.6h49.4C49.3,109.8,49.2,108.4,49.2,106.9z"/>
	<path class="st0" d="M128.7,53.5l16.9-46.3l-4-1.5L124.7,52C126,52.4,127.4,52.9,128.7,53.5z"/>
	<path class="st0" d="M164.1,99l48.5-8.6l-0.7-4.2l-48.5,8.6C163.7,96.2,163.9,97.6,164.1,99z"/>
	<path class="st0" d="M201.7,156.7L158.9,132c-1.2,2.6-2.6,5.1-4.2,7.4l42.8,24.7L201.7,156.7z"/>
	<path class="st0" d="M208.2,141.5l-46.3-16.8c-0.4,1.4-0.9,2.7-1.5,4l46.3,16.8L208.2,141.5z"/>
	<path class="st0" d="M212.6,123.4l-48.5-8.6c-0.2,1.4-0.4,2.8-0.7,4.2l48.5,8.6L212.6,123.4z"/>
	<path class="st0" d="M161.9,89.2l46.3-16.8l-1.5-4l-46.3,16.8C160.9,86.5,161.4,87.9,161.9,89.2z"/>
	<path class="st0" d="M145.6,64.2l31.7-37.8l-3.3-2.7l-31.7,37.8C143.5,62.3,144.6,63.2,145.6,64.2z"/>
	<path class="st0" d="M139.4,59.2l24.7-42.8l-7.4-4.3L132,55C134.6,56.2,137.1,57.6,139.4,59.2z"/>
	<path class="st0" d="M158.9,81.9l42.8-24.7l-4.3-7.4l-42.8,24.7C156.3,76.8,157.6,79.3,158.9,81.9z"/>
	<path class="st0" d="M190.2,174l-37.8-31.7c-0.9,1.1-1.8,2.2-2.8,3.3l37.8,31.7L190.2,174z"/>
	<path class="st0" d="M152.5,71.5l37.8-31.7l-2.7-3.3l-37.8,31.7C150.7,69.3,151.6,70.4,152.5,71.5z"/>
</g>
</svg>
